<?xml version="1.0" encoding="UTF-8"?>
<svg xmlns="http://www.w3.org/2000/svg" xmlns:xlink="http://www.w3.org/1999/xlink" width="900px" height="900px" viewBox="0 0 900 900" version="1.1">
<g id="surface1">
<path style=" stroke:none;fill-rule:nonzero;fill:rgb(0%,0%,0%);fill-opacity:1;" d="M 722.425781 96.78125 C 672.519531 99.816406 665.347656 100.917969 661.765625 107.535156 C 656.527344 117.1875 658.457031 128.769531 666.175781 134.835938 C 673.070312 140.074219 675.828125 140.625 700.09375 138.96875 C 731.527344 136.765625 734.835938 131.25 671.140625 186.398438 C 646.875 207.351562 609.925781 239.613281 588.96875 257.8125 C 568.015625 276.011719 548.160156 292.554688 544.851562 294.484375 C 539.890625 297.519531 526.65625 295.035156 445.3125 275.734375 C 299.722656 241.269531 315.164062 244.027344 303.585938 249.539062 C 298.070312 252.023438 276.839844 264.429688 256.433594 276.839844 C 236.03125 289.523438 198.253906 312.40625 172.335938 328.125 C 41.636719 407.535156 49.632812 402.023438 49.632812 412.222656 C 49.632812 419.117188 51.5625 422.976562 57.078125 427.390625 C 66.726562 434.835938 72.242188 433.457031 98.988281 417.1875 C 129.59375 398.4375 188.878906 362.59375 256.15625 321.78125 L 315.441406 286.214844 L 384.375 301.929688 C 422.425781 310.753906 473.988281 322.609375 499.082031 328.675781 C 524.171875 334.46875 547.058594 338.878906 550.09375 338.050781 C 555.605469 336.671875 570.773438 323.714844 656.25 248.160156 C 725.734375 186.398438 740.347656 173.988281 741.175781 175.09375 C 741.726562 175.367188 739.796875 186.671875 737.039062 199.90625 L 732.078125 223.898438 L 738.695312 229.136719 C 755.238281 242.648438 768.75 231.894531 778.675781 197.152344 C 782.535156 183.363281 789.429688 159.375 794.117188 143.65625 C 798.53125 127.941406 802.390625 112.777344 802.390625 110.019531 C 802.390625 107.535156 799.082031 102.574219 795.21875 99.539062 C 787.222656 93.199219 787.222656 93.199219 722.425781 96.78125 Z M 722.425781 96.78125 "/>
<path style=" stroke:none;fill-rule:nonzero;fill:rgb(0%,0%,0%);fill-opacity:1;" d="M 694.851562 541.820312 L 694.851562 816.175781 L 838.234375 816.175781 L 838.234375 267.464844 L 694.851562 267.464844 Z M 694.851562 541.820312 "/>
<path style=" stroke:none;fill-rule:nonzero;fill:rgb(0%,0%,0%);fill-opacity:1;" d="M 241.820312 376.929688 C 240.71875 377.757812 239.890625 477.023438 239.890625 597.519531 L 239.890625 816.175781 L 386.03125 816.175781 L 386.03125 375 L 314.890625 375 C 275.734375 375 242.648438 375.828125 241.820312 376.929688 Z M 241.820312 376.929688 "/>
<path style=" stroke:none;fill-rule:nonzero;fill:rgb(0%,0%,0%);fill-opacity:1;" d="M 463.234375 617.648438 L 463.234375 816.175781 L 612.132812 816.175781 L 612.132812 419.117188 L 463.234375 419.117188 Z M 463.234375 617.648438 "/>
<path style=" stroke:none;fill-rule:nonzero;fill:rgb(0%,0%,0%);fill-opacity:1;" d="M 11.03125 654.871094 L 11.03125 816.175781 L 159.925781 816.175781 L 159.925781 493.566406 L 11.03125 493.566406 Z M 11.03125 654.871094 "/>
</g>
</svg>
