<svg xmlns="http://www.w3.org/2000/svg" width="250" viewBox="0 0 369.97 46.277">
  <path d="M278 91c-3 8 -15 4 -12 -3l3 -13 -59 52c-1 1 -3 2 -5 2l-74 -17 -76 46c-3 2 -7 1 -9 -2s-1 -7 2 -8l79 -48c2 -1 3 -1 5 -1l72 17 60 -52 -16 1c-8 0 -9 -12 -1 -13l34 -2c4 0 7 2 7 6 0 3 -9 30 -10 35zm-25 15h47v177h-47V106zm-74 49h48v128h-48V155zm-72 -14h47v142h-47V141zm-74 38h48v104H33V179z"
        style="fill:#000;fill-rule:nonzero" transform="translate(-6.554 -9.93) scale(.19862)"
        xmlns="http://www.w3.org/2000/svg"/>
</svg>
