<?xml version="1.0" encoding="UTF-8" standalone="no"?>
<svg
   version="1.1"
   id="Layer_1"
   x="0px"
   y="0px"
   width="941.67493"
   viewBox="0 0 941.67493 935.08978"
   enable-background="new 0 0 752 1024"
   xml:space="preserve"
   sodipodi:docname="logo-900x900.2.svg"
   height="935.08978"
   inkscape:version="1.4.2 (ebf0e940, 2025-05-08)"
   xmlns:inkscape="http://www.inkscape.org/namespaces/inkscape"
   xmlns:sodipodi="http://sodipodi.sourceforge.net/DTD/sodipodi-0.dtd"
   xmlns="http://www.w3.org/2000/svg"
   xmlns:svg="http://www.w3.org/2000/svg"><defs
   id="defs3" /><sodipodi:namedview
   id="namedview3"
   pagecolor="#ffffff"
   bordercolor="#000000"
   borderopacity="0.25"
   inkscape:showpageshadow="2"
   inkscape:pageopacity="0.0"
   inkscape:pagecheckerboard="0"
   inkscape:deskcolor="#d1d1d1"
   showguides="true"
   inkscape:zoom="0.45557122"
   inkscape:cx="284.25852"
   inkscape:cy="420.3514"
   inkscape:window-width="1488"
   inkscape:window-height="770"
   inkscape:window-x="0"
   inkscape:window-y="34"
   inkscape:window-maximized="0"
   inkscape:current-layer="Layer_1" />

  
<rect
   style="fill:#ffffff"
   id="rect4"
   width="941.67493"
   height="935.08978"
   x="0"
   y="0" /><path
   fill="#000000"
   opacity="1"
   stroke="none"
   d="m 541.75407,327.08674 c -0.46466,11.26554 -1.83676,21.96634 -4.39041,32.49539 -3.36548,13.8761 -11.67889,16.96204 -23.9201,12.00766 -4.54544,-1.83969 -6.34195,-6.2164 -7.62693,-10.59219 -3.59896,-12.25574 -6.35376,-24.71854 -8.91571,-37.22766 -0.58782,-2.8703 -1.52981,-5.66806 -2.40081,-8.83371 -3.41532,1.29334 -3.71662,4.23999 -4.66089,6.48105 -15.51224,36.81567 -30.78784,73.73157 -46.40909,110.5007 -12.30188,28.95602 -25.06949,57.71378 -37.51065,86.61105 -17.23999,40.04364 -34.33774,80.14838 -51.55335,120.20246 -14.0632,32.71966 -28.25032,65.38598 -42.26004,98.12842 -1.48509,3.47088 -3.60765,4.61828 -7.25532,4.58014 -15.4952,-0.16211 -30.99349,-0.17737 -46.48907,-0.0513 -3.81748,0.0311 -5.88207,-1.1986 -7.48507,-4.88653 -12.73577,-29.30033 -25.80524,-58.45543 -38.60629,-87.7277 -15.86779,-36.28492 -31.52195,-72.66321 -47.37479,-108.95472 -9.05675,-20.73345 -18.32816,-41.37304 -27.49031,-62.06048 -0.52686,-1.18964 -1.31676,-2.36688 -0.63563,-3.80896 1.40956,-1.2146 3.1421,-0.81442 4.75682,-0.8093 24.66115,0.0784 49.32241,0.27762 73.98308,0.21643 4.74305,-0.0118 7.51627,1.3649 9.55301,5.97889 10.81854,24.50821 21.98191,48.86422 33.04053,73.26638 7.69059,16.97022 15.37879,33.94159 23.14756,50.87604 0.80031,1.74457 1.40857,3.76727 3.88226,5.13239 2.31027,-5.18353 4.62392,-10.24195 6.8301,-15.34687 12.01178,-27.79449 24.0628,-55.57238 35.97335,-83.41021 12.30704,-28.76453 24.40868,-57.61695 36.71151,-86.3833 11.57791,-27.07142 23.56248,-53.97174 34.88591,-81.14829 11.12948,-26.71112 22.8504,-53.15936 34.38159,-79.69293 0.59216,-1.36258 1.50192,-2.8284 0.36847,-4.2189 -1.10785,-1.3591 -2.73078,-0.89286 -4.20496,-0.61628 -21.20044,3.97742 -42.44501,7.68238 -63.56052,12.16318 -8.95636,1.90058 -18.78677,3.3317 -26.56285,-5.16742 -8.16302,-8.92209 -6.96376,-19.01172 3.70722,-24.67373 18.23791,-9.67704 36.42592,-19.45346 54.78941,-28.88738 37.18176,-19.1015 73.17838,-40.40924 110.51596,-59.21333 16.66107,-8.3909 33.36896,-16.68883 50.05216,-25.03586 1.4758,-0.73837 2.97775,-1.97504 4.62268,-0.79875 1.72858,1.23604 0.78698,2.97554 0.4093,4.57098 -1.31409,5.55052 -0.61026,11.25022 -1.31967,16.88756 -2.71567,21.58035 -4.89279,43.22778 -7.41654,64.83318 -2.07919,17.79994 -4.83575,35.53428 -6.4075,53.37562 -1.23855,14.05902 -3.30267,28.01248 -4.55704,42.065 -0.55755,6.24613 -0.57601,12.64475 -2.59738,19.17328 z"
   id="path1" />
<path
   fill="#000000"
   opacity="1"
   stroke="none"
   d="m 793.73576,617.02354 c 9.91059,23.86139 19.6576,47.37531 29.42566,70.88049 6.38129,15.35541 12.80231,30.69422 19.17981,46.05121 0.81818,1.97016 1.48108,4.00489 2.17438,5.89643 -1.59656,1.92767 -3.5567,1.43994 -5.30927,1.4439 -21.99499,0.0502 -43.99035,-0.002 -65.98492,0.1095 -4.02618,0.0203 -6.07275,-1.30493 -7.64014,-5.35034 -8.94958,-23.09815 -18.35528,-46.01904 -27.52472,-69.03259 -9.47955,-23.792 -18.79614,-47.64905 -28.31311,-71.42597 -9.76129,-24.38739 -19.72662,-48.69305 -29.51477,-73.06976 -10.34686,-25.76825 -20.56012,-51.59009 -30.888,-77.36597 -8.1008,-20.21737 -16.28534,-40.40124 -24.43985,-60.5971 -0.67184,-1.66391 -1.14816,-3.50028 -2.97485,-4.1691 -2.0398,0.43689 -2.27081,2.08767 -2.80576,3.4266 -18.95089,47.43482 -37.85891,94.88675 -56.82614,142.31501 -11.36654,28.42236 -22.87472,56.78802 -34.22269,85.21771 -12.89172,32.2973 -25.67266,64.63879 -38.50836,96.95843 -3.93127,9.89869 -7.96597,19.75745 -11.77026,29.70453 -0.95596,2.49958 -2.56354,3.27619 -4.92435,3.28247 -24.49368,0.0646 -48.98733,0.1366 -73.48108,0.18048 -4.35525,0.008 -4.37994,-1.99542 -2.88128,-5.47949 15.77542,-36.67566 31.39566,-73.41803 47.11795,-110.11658 12.05243,-28.1325 24.30945,-56.17779 36.26107,-84.35278 18.19184,-42.88568 36.2808,-85.8154 54.25818,-128.79141 15.40787,-36.83347 30.57782,-73.76642 45.89924,-110.63623 3.51117,-8.44937 7.29403,-16.78626 10.77346,-25.24826 0.99231,-2.41333 2.56519,-3.50663 4.94763,-3.27082 17.15857,1.6984 34.28623,-0.65893 51.43708,-0.37585 4.23163,0.0699 6.18054,1.80505 7.67773,5.52432 17.63843,43.81677 35.25202,87.64469 53.17017,131.34744 22.21594,54.18537 44.70154,108.2602 67.09277,162.37366 6.10596,14.75647 12.29108,29.48017 18.59442,44.57007 z"
   id="path2" />
  <!-- Wordmark -->
  
</svg>
